<svg width="142" height="140" viewBox="0 0 142 140" fill="none" xmlns="http://www.w3.org/2000/svg">
<path d="M96.4649 27.328C96.9 27.7804 97.2549 28.3036 97.5146 28.8751L97.5459 28.8438L141.475 127.802L141.432 127.845C142.247 129.424 140.884 132.635 138.091 135.432C135.299 138.225 132.087 139.588 130.509 138.773L130.469 138.812L31.5109 94.8788L31.5422 94.8435C30.9665 94.5693 30.4377 94.2364 29.9951 93.7899C23.8773 87.6721 33.7982 67.8342 52.1478 49.4807C70.5052 31.1272 90.3431 21.2102 96.4649 27.328Z" fill="#DD2E44"/>
<path d="M91.0834 45L140.371 125.315L141.475 127.802L141.432 127.845C142.247 129.424 140.884 132.635 138.091 135.432C137.183 136.341 136.239 137.03 135.314 137.614L75.4167 64.5833L91.0834 45Z" fill="#EA596E"/>
<path d="M51.8697 49.1752C33.5789 67.4738 23.423 86.9788 29.1962 92.7442C34.9654 98.5173 54.4704 88.3653 72.773 70.0745C91.0677 51.7758 101.22 32.263 95.4505 26.4938C89.6773 20.7245 70.1723 30.8765 51.8697 49.1752Z" fill="#A0041E"/>
<path d="M69.1892 51.3019C69.5886 51.6259 70.0485 51.8672 70.542 52.0118C71.0356 52.1564 71.553 52.2013 72.064 52.144C75.4637 51.7758 78.3229 50.593 80.3243 48.7248C82.4432 46.7468 83.489 44.0913 83.2031 41.4319C82.7017 36.7633 78.0174 32.4784 70.0313 33.3401C66.9254 33.673 65.5389 32.6743 65.4919 32.1964C65.4371 31.7225 66.5768 30.4496 69.6827 30.1128C73.0824 29.7446 75.9416 28.5618 77.9469 26.6935C80.0658 24.7156 81.1155 22.0601 80.8256 19.4007C80.3165 14.732 75.636 10.4472 67.6578 11.3128C65.394 11.5556 64.1994 11.0895 63.6941 10.7879C63.2907 10.5412 63.1301 10.3062 63.1145 10.1691C63.0675 9.69518 64.1916 8.42226 67.3053 8.08543C67.8169 8.0308 68.3127 7.87569 68.7643 7.62901C69.2158 7.38233 69.6142 7.04893 69.9366 6.64792C70.259 6.24692 70.4991 5.78621 70.6431 5.29222C70.787 4.79823 70.832 4.28068 70.7755 3.76926C70.7213 3.2578 70.5667 2.76207 70.3204 2.31055C70.0741 1.85903 69.7411 1.46061 69.3404 1.13816C68.9397 0.815718 68.4793 0.575605 67.9855 0.431612C67.4918 0.287619 66.9744 0.242584 66.4632 0.299093C58.485 1.15684 54.819 6.33859 55.3242 11.0112C55.8334 15.6877 60.5138 19.9647 68.4999 19.1069C70.7637 18.8602 71.9466 19.3302 72.4557 19.6318C72.8591 19.8746 73.0236 20.1135 73.0393 20.2467C73.0902 20.7245 71.9583 21.9935 68.8446 22.3303C60.8663 23.192 57.2003 28.3698 57.7056 33.0424C58.2108 37.7111 62.8912 41.9959 70.8734 41.1303C73.1372 40.8875 74.3279 41.3575 74.8371 41.6552C75.2444 41.9058 75.4011 42.1408 75.4167 42.274C75.4676 42.7479 74.3357 44.0208 71.2259 44.3577C70.4558 44.4408 69.7276 44.7504 69.1334 45.2473C68.5393 45.7442 68.1058 46.4062 67.8878 47.1494C67.6698 47.8927 67.6771 48.6839 67.9088 49.4231C68.1404 50.1622 68.586 50.816 69.1892 51.3019Z" fill="#AA8DD8"/>
<path d="M21.9111 87.5233C14.1836 85.3417 8.85297 88.7883 7.58397 93.3121C6.31497 97.8319 9.06447 103.554 16.7881 105.728C19.804 106.574 20.7087 108.015 20.5873 108.474C20.4541 108.936 18.9227 109.696 15.9147 108.846C8.19105 106.672 2.86047 110.119 1.59147 114.638C0.314641 119.162 3.07197 124.877 10.7996 127.054C13.8115 127.9 14.7201 129.345 14.587 129.804C14.4577 130.262 12.9302 131.022 9.91831 130.176C9.41862 130.021 8.89304 129.968 8.3726 130.02C7.85215 130.072 7.34738 130.228 6.88807 130.478C6.42875 130.728 6.02419 131.068 5.69827 131.477C5.37234 131.886 5.13165 132.356 4.99038 132.86C4.84911 133.363 4.81013 133.89 4.87575 134.409C4.94137 134.928 5.11026 135.428 5.37245 135.881C5.63463 136.334 5.9848 136.729 6.4023 137.044C6.81979 137.359 7.29617 137.587 7.8033 137.715C15.5231 139.889 20.8576 136.45 22.1344 131.923C23.4034 127.403 20.65 121.688 12.9185 119.511C9.90264 118.661 8.99789 117.223 9.13106 116.761C9.25639 116.303 10.7839 115.539 13.7919 116.385C21.5234 118.563 26.8501 115.124 28.123 110.592C29.3959 106.073 26.6425 100.358 18.9149 98.1766C15.9069 97.3345 15.0021 95.8853 15.1275 95.431C15.2606 94.9688 16.7842 94.209 19.7961 95.055C20.2996 95.2246 20.8322 95.29 21.3617 95.2473C21.8912 95.2045 22.4065 95.0545 22.8762 94.8064C23.3459 94.5582 23.7602 94.2171 24.0939 93.8038C24.4276 93.3905 24.6738 92.9136 24.8174 92.4022C24.961 91.8908 24.9991 91.3555 24.9293 90.8288C24.8595 90.3022 24.6834 89.7953 24.4115 89.3389C24.1396 88.8825 23.7778 88.4862 23.3479 88.1741C22.9181 87.862 22.4293 87.6405 21.9111 87.5233Z" fill="#77B255"/>
<path d="M51.9128 76.96C52.7239 76.9589 53.5146 76.7063 54.1761 76.2369C54.8376 75.7676 55.3372 75.1047 55.6062 74.3395C55.8751 73.5743 55.9002 72.7446 55.6778 71.9646C55.4554 71.1846 54.9966 70.4928 54.3646 69.9844C53.5108 69.299 33.1442 53.3033 4.36057 57.4198C3.83983 57.4786 3.33619 57.6414 2.87951 57.8985C2.42282 58.1555 2.02236 58.5016 1.70185 58.9162C1.38134 59.3308 1.14729 59.8055 1.01357 60.3122C0.879844 60.8189 0.84917 61.3473 0.923354 61.8661C0.997542 62.3849 1.17507 62.8835 1.44545 63.3324C1.71583 63.7813 2.07355 64.1714 2.49742 64.4796C2.92129 64.7877 3.40269 65.0077 3.91312 65.1264C4.42354 65.2452 4.95261 65.2603 5.46897 65.1708C30.8999 61.5597 49.2847 75.9573 49.4649 76.1023C50.1596 76.6582 51.0231 76.9607 51.9128 76.96Z" fill="#AA8DD8"/>
<path d="M119.464 60.6667C120.074 60.6667 120.676 60.5241 121.222 60.2501C121.767 59.9761 122.241 59.5784 122.606 59.0887C122.97 58.599 123.215 58.0308 123.321 57.4296C123.427 56.8284 123.391 56.2107 123.216 55.6259C118.778 40.8484 114.756 17.2661 119.699 11.1169C120.251 10.4198 121.085 9.73434 122.996 9.87926C126.67 10.1613 126.322 17.9123 126.318 17.9907C126.268 18.5096 126.322 19.0332 126.478 19.5308C126.633 20.0284 126.886 20.49 127.222 20.8886C127.558 21.2872 127.97 21.6147 128.434 21.8519C128.898 22.0892 129.405 22.2314 129.925 22.2702C130.444 22.3091 130.967 22.2438 131.461 22.0781C131.955 21.9125 132.412 21.6499 132.803 21.3057C133.194 20.9614 133.513 20.5425 133.741 20.0735C133.968 19.6045 134.1 19.0948 134.128 18.5743C134.531 13.1732 132.851 2.77051 123.584 2.06943C119.448 1.75609 116.013 3.19351 113.589 6.20934C104.302 17.7674 113.73 51.2745 115.711 57.878C115.954 58.6844 116.45 59.3912 117.126 59.8936C117.802 60.3959 118.621 60.667 119.464 60.6667Z" fill="#77B255"/>
<path d="M42.1251 41.0833C38.8804 41.0833 36.2501 38.453 36.2501 35.2083C36.2501 31.9637 38.8804 29.3333 42.1251 29.3333C45.3697 29.3333 48.0001 31.9637 48.0001 35.2083C48.0001 38.453 45.3697 41.0833 42.1251 41.0833Z" fill="#5C913B"/>
<path d="M134.167 76.3333C129.841 76.3333 126.333 72.8262 126.333 68.5C126.333 64.1738 129.841 60.6667 134.167 60.6667C138.493 60.6667 142 64.1738 142 68.5C142 72.8262 138.493 76.3333 134.167 76.3333Z" fill="#9266CC"/>
<path d="M14.7084 80.25C11.4637 80.25 8.83339 77.6197 8.83339 74.375C8.83339 71.1303 11.4637 68.5 14.7084 68.5C17.9531 68.5 20.5834 71.1303 20.5834 74.375C20.5834 77.6197 17.9531 80.25 14.7084 80.25Z" fill="#5C913B"/>
<path d="M49.9584 127.25C46.7137 127.25 44.0834 124.62 44.0834 121.375C44.0834 118.13 46.7137 115.5 49.9584 115.5C53.2031 115.5 55.8334 118.13 55.8334 121.375C55.8334 124.62 53.2031 127.25 49.9584 127.25Z" fill="#5C913B"/>
<path d="M32.3334 21.5C28.0072 21.5 24.5001 17.9929 24.5001 13.6667C24.5001 9.34045 28.0072 5.83334 32.3334 5.83334C36.6596 5.83334 40.1667 9.34045 40.1667 13.6667C40.1667 17.9929 36.6596 21.5 32.3334 21.5Z" fill="#FFCC4D"/>
<path d="M14.7084 37.1667C11.4637 37.1667 8.83339 34.5364 8.83339 31.2917C8.83339 28.047 11.4637 25.4167 14.7084 25.4167C17.9531 25.4167 20.5834 28.047 20.5834 31.2917C20.5834 34.5364 17.9531 37.1667 14.7084 37.1667Z" fill="#FFCC4D"/>
<path d="M26.4584 52.8333C23.2137 52.8333 20.5834 50.203 20.5834 46.9583C20.5834 43.7137 23.2137 41.0833 26.4584 41.0833C29.7031 41.0833 32.3334 43.7137 32.3334 46.9583C32.3334 50.203 29.7031 52.8333 26.4584 52.8333Z" fill="#FFCC4D"/>
<path d="M112.625 95.9167C109.38 95.9167 106.75 93.2864 106.75 90.0417C106.75 86.797 109.38 84.1667 112.625 84.1667C115.87 84.1667 118.5 86.797 118.5 90.0417C118.5 93.2864 115.87 95.9167 112.625 95.9167Z" fill="#FFCC4D"/>
</svg>
