<svg width="142" height="140" viewBox="0 0 142 140" fill="none" xmlns="http://www.w3.org/2000/svg">
<path d="M45.5352 27.328C45.1001 27.7804 44.7451 28.3036 44.4855 28.8751L44.4542 28.8438L0.524838 127.802L0.567922 127.845C-0.246745 129.424 1.11626 132.635 3.90884 135.432C6.70142 138.225 9.91309 139.588 11.4915 138.773L11.5307 138.812L110.489 94.8788L110.458 94.8435C111.034 94.5693 111.562 94.2364 112.005 93.7899C118.123 87.6721 108.202 67.8342 89.8523 49.4807C71.4948 31.1272 51.6569 21.2102 45.5352 27.328Z" fill="#DD2E44"/>
<path d="M50.9167 45L1.62934 125.315L0.524838 127.802L0.567922 127.845C-0.246745 129.424 1.11626 132.635 3.90884 135.432C4.81751 136.341 5.76142 137.03 6.68575 137.613L66.5833 64.5833L50.9167 45Z" fill="#EA596E"/>
<path d="M90.1303 49.1752C108.421 67.4738 118.577 86.9788 112.804 92.7442C107.035 98.5173 87.5297 88.3653 69.2271 70.0745C50.9323 51.7758 40.7803 32.263 46.5496 26.4937C52.3228 20.7245 71.8277 30.8765 90.1303 49.1752Z" fill="#A0041E"/>
<path d="M72.8108 51.3019C72.4114 51.6259 71.9516 51.8672 71.458 52.0118C70.9645 52.1564 70.4471 52.2013 69.936 52.144C66.5363 51.7758 63.6772 50.593 61.6758 48.7248C59.5568 46.7468 58.5111 44.0913 58.797 41.4319C59.2983 36.7633 63.9827 32.4784 71.9688 33.3401C75.0747 33.673 76.4612 32.6743 76.5082 32.1964C76.563 31.7225 75.4233 30.4496 72.3173 30.1128C68.9177 29.7446 66.0585 28.5618 64.0532 26.6935C61.9343 24.7156 60.8846 22.0601 61.1744 19.4007C61.6836 14.732 66.364 10.4472 74.3423 11.3128C76.6061 11.5556 77.8007 11.0895 78.3059 10.7879C78.7093 10.5412 78.8699 10.3062 78.8856 10.1691C78.9326 9.69518 77.8085 8.42226 74.6948 8.08543C74.1831 8.0308 73.6873 7.87569 73.2358 7.62901C72.7842 7.38233 72.3858 7.04893 72.0634 6.64792C71.741 6.24692 71.501 5.78621 71.357 5.29222C71.2131 4.79823 71.1681 4.28068 71.2246 3.76926C71.2787 3.2578 71.4334 2.76207 71.6797 2.31055C71.9259 1.85903 72.259 1.46061 72.6597 1.13816C73.0604 0.815718 73.5208 0.575605 74.0146 0.431612C74.5083 0.287619 75.0256 0.242584 75.5368 0.299093C83.5151 1.15684 87.1811 6.33859 86.6758 11.0112C86.1667 15.6877 81.4863 19.9647 73.5002 19.1069C71.2363 18.8602 70.0535 19.3302 69.5443 19.6318C69.1409 19.8746 68.9764 20.1135 68.9608 20.2467C68.9098 20.7245 70.0418 21.9935 73.1555 22.3303C81.1338 23.192 84.7998 28.3698 84.2945 33.0424C83.7893 37.7111 79.1088 41.9959 71.1267 41.1303C68.8628 40.8875 67.6722 41.3575 67.163 41.6552C66.7557 41.9058 66.599 42.1408 66.5833 42.274C66.5324 42.7479 67.6643 44.0208 70.7742 44.3577C71.5443 44.4408 72.2724 44.7504 72.8666 45.2473C73.4608 45.7442 73.8943 46.4062 74.1123 47.1494C74.3302 47.8927 74.323 48.6839 74.0913 49.4231C73.8597 50.1622 73.4141 50.816 72.8108 51.3019Z" fill="#AA8DD8"/>
<path d="M120.089 87.5232C127.817 85.3417 133.147 88.7883 134.416 93.3121C135.685 97.8319 132.936 103.554 125.212 105.728C122.196 106.574 121.291 108.015 121.413 108.473C121.546 108.936 123.077 109.695 126.085 108.846C133.809 106.672 139.14 110.118 140.409 114.638C141.685 119.162 138.928 124.876 131.201 127.054C128.189 127.9 127.28 129.345 127.413 129.804C127.542 130.262 129.07 131.022 132.082 130.176C132.581 130.021 133.107 129.968 133.627 130.02C134.148 130.072 134.653 130.228 135.112 130.478C135.571 130.728 135.976 131.068 136.302 131.477C136.628 131.886 136.868 132.356 137.01 132.86C137.151 133.363 137.19 133.89 137.124 134.409C137.059 134.928 136.89 135.428 136.628 135.881C136.365 136.334 136.015 136.729 135.598 137.044C135.18 137.359 134.704 137.587 134.197 137.715C126.477 139.889 121.143 136.45 119.866 131.923C118.597 127.403 121.35 121.688 129.082 119.511C132.097 118.661 133.002 117.223 132.869 116.761C132.744 116.303 131.216 115.539 128.208 116.385C120.477 118.563 115.15 115.124 113.877 110.592C112.604 106.073 115.358 100.358 123.085 98.1766C126.093 97.3345 126.998 95.8853 126.873 95.431C126.739 94.9688 125.216 94.209 122.204 95.055C121.701 95.2246 121.168 95.29 120.638 95.2473C120.109 95.2045 119.594 95.0545 119.124 94.8064C118.654 94.5582 118.24 94.2171 117.906 93.8038C117.572 93.3905 117.326 92.9136 117.183 92.4022C117.039 91.8907 117.001 91.3554 117.071 90.8288C117.141 90.3022 117.317 89.7953 117.589 89.3389C117.86 88.8825 118.222 88.4862 118.652 88.1741C119.082 87.8619 119.571 87.6405 120.089 87.5232Z" fill="#77B255"/>
<path d="M90.0872 76.96C89.2762 76.9589 88.4854 76.7063 87.824 76.2369C87.1625 75.7676 86.6628 75.1047 86.3939 74.3395C86.1249 73.5743 86.0999 72.7446 86.3223 71.9646C86.5446 71.1846 87.0034 70.4928 87.6354 69.9844C88.4893 69.299 108.856 53.3033 137.639 57.4198C138.16 57.4786 138.664 57.6414 139.121 57.8984C139.577 58.1555 139.978 58.5016 140.298 58.9162C140.619 59.3308 140.853 59.8055 140.986 60.3122C141.12 60.8189 141.151 61.3473 141.077 61.8661C141.003 62.3849 140.825 62.8835 140.555 63.3324C140.284 63.7813 139.927 64.1714 139.503 64.4796C139.079 64.7877 138.597 65.0077 138.087 65.1264C137.577 65.2452 137.047 65.2603 136.531 65.1708C111.1 61.5597 92.7153 75.9573 92.5352 76.1023C91.8405 76.6582 90.977 76.9607 90.0872 76.96Z" fill="#AA8DD8"/>
<path d="M22.5365 60.6667C21.926 60.6667 21.324 60.524 20.7784 60.2501C20.2329 59.9761 19.7589 59.5784 19.3944 59.0887C19.0299 58.5989 18.7849 58.0308 18.679 57.4296C18.573 56.8284 18.6091 56.2107 18.7843 55.6259C23.2219 40.8483 27.2443 17.2661 22.3015 11.1169C21.7492 10.4197 20.915 9.73432 19.0037 9.87924C15.3298 10.1612 15.6784 17.9123 15.6823 17.9907C15.7321 18.5095 15.6777 19.0331 15.5225 19.5308C15.3673 20.0284 15.1143 20.49 14.7784 20.8886C14.4424 21.2872 14.0303 21.6147 13.5662 21.8519C13.102 22.0892 12.5952 22.2314 12.0754 22.2702C11.5556 22.3091 11.0332 22.2438 10.539 22.0781C10.0447 21.9125 9.58854 21.6499 9.1971 21.3056C8.80566 20.9614 8.48687 20.5425 8.25942 20.0735C8.03196 19.6045 7.90042 19.0948 7.8725 18.5742C7.46908 13.1732 9.14933 2.77049 18.4162 2.0694C22.5522 1.75607 25.9871 3.19349 28.4115 6.20932C37.6979 17.7674 28.2705 51.2745 26.2887 57.878C26.0461 58.6844 25.5502 59.3912 24.8743 59.8935C24.1984 60.3959 23.3786 60.667 22.5365 60.6667Z" fill="#77B255"/>
<path d="M99.875 41.0833C103.12 41.0833 105.75 38.453 105.75 35.2083C105.75 31.9637 103.12 29.3333 99.875 29.3333C96.6303 29.3333 94 31.9637 94 35.2083C94 38.453 96.6303 41.0833 99.875 41.0833Z" fill="#5C913B"/>
<path d="M7.83333 76.3334C12.1596 76.3334 15.6667 72.8262 15.6667 68.5C15.6667 64.1738 12.1596 60.6667 7.83333 60.6667C3.5071 60.6667 0 64.1738 0 68.5C0 72.8262 3.5071 76.3334 7.83333 76.3334Z" fill="#9266CC"/>
<path d="M127.292 80.25C130.536 80.25 133.167 77.6197 133.167 74.375C133.167 71.1303 130.536 68.5 127.292 68.5C124.047 68.5 121.417 71.1303 121.417 74.375C121.417 77.6197 124.047 80.25 127.292 80.25Z" fill="#5C913B"/>
<path d="M92.0417 127.25C95.2864 127.25 97.9167 124.62 97.9167 121.375C97.9167 118.13 95.2864 115.5 92.0417 115.5C88.797 115.5 86.1667 118.13 86.1667 121.375C86.1667 124.62 88.797 127.25 92.0417 127.25Z" fill="#5C913B"/>
<path d="M109.667 21.5C113.993 21.5 117.5 17.9929 117.5 13.6667C117.5 9.34045 113.993 5.83334 109.667 5.83334C105.34 5.83334 101.833 9.34045 101.833 13.6667C101.833 17.9929 105.34 21.5 109.667 21.5Z" fill="#FFCC4D"/>
<path d="M127.292 37.1667C130.536 37.1667 133.167 34.5363 133.167 31.2917C133.167 28.047 130.536 25.4167 127.292 25.4167C124.047 25.4167 121.417 28.047 121.417 31.2917C121.417 34.5363 124.047 37.1667 127.292 37.1667Z" fill="#FFCC4D"/>
<path d="M115.542 52.8333C118.786 52.8333 121.417 50.203 121.417 46.9583C121.417 43.7137 118.786 41.0833 115.542 41.0833C112.297 41.0833 109.667 43.7137 109.667 46.9583C109.667 50.203 112.297 52.8333 115.542 52.8333Z" fill="#FFCC4D"/>
<path d="M29.375 95.9167C32.6197 95.9167 35.25 93.2863 35.25 90.0417C35.25 86.797 32.6197 84.1667 29.375 84.1667C26.1303 84.1667 23.5 86.797 23.5 90.0417C23.5 93.2863 26.1303 95.9167 29.375 95.9167Z" fill="#FFCC4D"/>
</svg>
