<svg width="936" height="182" viewBox="0 0 936 182" fill="none" xmlns="http://www.w3.org/2000/svg">
<path d="M153.061 167.022C134.556 166.983 119.528 151.95 119.494 133.445L119.371 66.434L132.773 66.4622L132.896 133.366L132.896 133.474C132.917 144.577 141.934 153.597 153.036 153.62C164.139 153.644 173.123 144.663 173.103 133.56L172.98 66.5486L186.382 66.5772L186.505 133.588C186.539 152.093 171.566 167.062 153.061 167.022Z" fill="#FFB580"/>
<path d="M121.107 47.3442L134.509 47.3179C134.546 28.813 119.575 13.8418 101.07 13.8786C82.5649 13.9154 67.5343 28.946 67.4977 47.4507L67.3643 114.462L80.7665 114.435L80.8998 47.4245C80.9223 36.3213 89.9403 27.3033 101.043 27.2809C112.146 27.2591 121.128 36.2416 121.107 47.3442Z" fill="#FFB580"/>
<path d="M27.0429 133.805L13.6406 133.832C13.6039 152.337 28.5751 167.308 47.0799 167.271C65.5847 167.234 80.6153 152.204 80.6519 133.699L80.7853 66.688L67.3832 66.7142L67.2498 133.725C67.2274 144.828 58.2093 153.846 47.1062 153.869C36.0038 153.891 27.0213 144.908 27.0429 133.805Z" fill="#FFB580"/>
<path d="M213.199 79.8476C209.498 79.8395 206.492 76.8329 206.485 73.1322C206.478 69.431 209.473 66.4372 213.174 66.4453C216.875 66.4531 219.881 69.4598 219.887 73.1607C219.894 76.8616 216.9 79.8554 213.199 79.8476Z" fill="#FFB580"/>
<path d="M92.9659 66.4272C96.6667 66.4352 99.6724 69.4418 99.6794 73.1427C99.6861 76.8437 96.6914 79.8374 92.9906 79.8294C89.2896 79.8216 86.2839 76.815 86.2772 73.1139C86.2703 69.4131 89.2649 66.4194 92.9659 66.4272Z" fill="#FFB580"/>
<path d="M186.317 66.3939L186.341 79.7955L213.146 79.8531C209.445 79.8451 206.439 76.8384 206.432 73.1377C206.426 69.4365 209.42 66.4428 213.121 66.4508L186.317 66.3939Z" fill="#FFB580"/>
<path d="M119.808 79.8388L119.783 66.4371L92.979 66.3796C96.6798 66.3876 99.6856 69.3943 99.6924 73.095C99.6992 76.7962 96.7045 79.7899 93.0035 79.7819L119.808 79.8388Z" fill="#FFB580"/>
<path d="M264.325 60.0156L285.243 112.223L306.161 60.0156H317.104V124H308.666V99.083L309.457 72.1885L288.451 124H281.991L261.029 72.3203L261.864 99.083V124H253.427V60.0156H264.325ZM368.124 107.301H341.317L335.297 124H326.596L351.029 60.0156H358.412L382.89 124H374.232L368.124 107.301ZM343.866 100.357H365.619L354.721 70.4307L343.866 100.357ZM429.999 66.959H409.433V124H401.039V66.959H380.517V60.0156H429.999V66.959ZM475.658 94.4248H447.929V117.101H480.141V124H439.491V60.0156H479.701V66.959H447.929V87.5254H475.658V94.4248ZM501.542 60.0156L522.46 112.223L543.378 60.0156H554.32V124H545.883V99.083L546.674 72.1885L525.668 124H519.208L498.246 72.3203L499.081 99.083V124H490.644V60.0156H501.542ZM605.341 107.301H578.534L572.514 124H563.812L588.246 60.0156H595.629L620.106 124H611.449L605.341 107.301ZM581.083 100.357H602.836L591.938 70.4307L581.083 100.357ZM667.216 66.959H646.649V124H638.256V66.959H617.733V60.0156H667.216V66.959ZM685.761 124H677.323V60.0156H685.761V124ZM717.489 94.249L709.667 102.379V124H701.229V60.0156H709.667V91.6562L738.1 60.0156H748.295L723.114 88.2725L750.272 124H740.165L717.489 94.249ZM801.864 66.959H781.298V124H772.904V66.959H752.382V60.0156H801.864V66.959ZM847.523 94.4248H819.794V117.101H852.006V124H811.356V60.0156H851.566V66.959H819.794V87.5254H847.523V94.4248ZM885.976 98.1162H870.946V124H862.465V60.0156H883.646C890.854 60.0156 896.391 61.6562 900.258 64.9375C904.154 68.2188 906.103 72.9941 906.103 79.2637C906.103 83.248 905.019 86.7197 902.851 89.6787C900.712 92.6377 897.724 94.8496 893.886 96.3145L908.915 123.473V124H899.862L885.976 98.1162ZM870.946 91.2168H883.91C888.1 91.2168 891.425 90.1328 893.886 87.9648C896.376 85.7969 897.621 82.8965 897.621 79.2637C897.621 75.3086 896.435 72.2764 894.062 70.167C891.718 68.0576 888.319 66.9883 883.866 66.959H870.946V91.2168ZM927.021 124H918.583V60.0156H927.021V124Z" fill="white"/>
</svg>
