<svg width="288" height="19" viewBox="0 0 288 19" fill="none" xmlns="http://www.w3.org/2000/svg">
<path d="M14.375 0.9375L12.4062 12.4805C12.1406 14.2539 11.375 15.668 10.1094 16.7227C8.84375 17.7695 7.31641 18.2773 5.52734 18.2461C4.41016 18.2227 3.4375 17.9727 2.60938 17.4961C1.78906 17.0117 1.18359 16.3359 0.792969 15.4688C0.402344 14.5938 0.273438 13.6016 0.40625 12.4922L2.375 0.9375H4.54297L2.58594 12.5039C2.45312 13.6992 2.65625 14.6406 3.19531 15.3281C3.73438 16.0078 4.55078 16.3633 5.64453 16.3945C6.83203 16.4414 7.83203 16.1211 8.64453 15.4336C9.46484 14.7383 9.98047 13.7656 10.1914 12.5156L12.1602 0.9375H14.375ZM17.4336 16.1602H25.2852L24.957 18H14.9023L17.8672 0.9375H20.082L17.4336 16.1602ZM31.2148 9.49219L37.0156 0.9375H39.6406L31.9883 11.7539L30.8984 18H28.707L29.832 11.5078L26.0234 0.9375H28.4141L31.2148 9.49219ZM44.7383 18L47.7031 0.9375L52.1328 0.949219C53.5234 0.949219 54.7188 1.29688 55.7188 1.99219C56.7266 2.6875 57.4492 3.64844 57.8867 4.875C58.3242 6.09375 58.4531 7.46094 58.2734 8.97656L58.1562 9.83203C57.8125 12.3164 56.8477 14.3008 55.2617 15.7852C53.6758 17.2617 51.6836 18 49.2852 18H44.7383ZM49.5781 2.78906L47.2578 16.1602L49.4258 16.1719C51.082 16.1719 52.4844 15.6562 53.6328 14.625C54.7891 13.5938 55.5391 12.1797 55.8828 10.3828C56.1562 8.94531 56.25 7.72266 56.1641 6.71484C56.0469 5.50391 55.6445 4.55859 54.957 3.87891C54.2695 3.19141 53.3477 2.83203 52.1914 2.80078L49.5781 2.78906ZM69.8398 13.5469H62.9258L60.5938 18H58.2383L67.5078 0.9375H69.4414L72.8164 18H70.6484L69.8398 13.5469ZM63.8984 11.6953H69.5117L68.0938 3.73828L63.8984 11.6953ZM77.7148 16.1602H85.5664L85.2383 18H75.1836L78.1484 0.9375H80.3633L77.7148 16.1602ZM98.0352 13.5469H91.1211L88.7891 18H86.4336L95.7031 0.9375H97.6367L101.012 18H98.8438L98.0352 13.5469ZM92.0938 11.6953H97.707L96.2891 3.73828L92.0938 11.6953ZM115.004 0.9375L117.992 14.8359L125.82 0.9375H128.715L125.75 18H123.559L124.73 11.25L126.125 4.38281L118.391 18H116.703L113.656 4.11328L112.602 11.4727L111.465 18H109.262L112.227 0.9375H115.004ZM139.871 13.5469H132.957L130.625 18H128.27L137.539 0.9375H139.473L142.848 18H140.68L139.871 13.5469ZM133.93 11.6953H139.543L138.125 3.73828L133.93 11.6953ZM157.777 2.78906H152.469L149.832 18H147.641L150.277 2.78906H144.969L145.297 0.9375H158.105L157.777 2.78906ZM168.453 10.1133H161.281L160.227 16.1602H168.57L168.242 18H157.707L160.672 0.9375H171.09L170.762 2.78906H162.547L161.598 8.27344H168.77L168.453 10.1133ZM176.809 0.9375L179.797 14.8359L187.625 0.9375H190.52L187.555 18H185.363L186.535 11.25L187.93 4.38281L180.195 18H178.508L175.461 4.11328L174.406 11.4727L173.27 18H171.066L174.031 0.9375H176.809ZM201.676 13.5469H194.762L192.43 18H190.074L199.344 0.9375H201.277L204.652 18H202.484L201.676 13.5469ZM195.734 11.6953H201.348L199.93 3.73828L195.734 11.6953ZM219.582 2.78906H214.273L211.637 18H209.445L212.082 2.78906H206.773L207.102 0.9375H219.91L219.582 2.78906ZM221.867 18H219.676L222.641 0.9375H224.832L221.867 18ZM231.641 10.0898L229.145 12.3281L228.16 18H225.957L228.922 0.9375H231.125L229.672 9.24609L238.367 0.9375H241.203L233.27 8.57812L238.578 18H236.129L231.641 10.0898ZM254.762 2.78906H249.453L246.816 18H244.625L247.262 2.78906H241.953L242.281 0.9375H255.09L254.762 2.78906ZM265.438 10.1133H258.266L257.211 16.1602H265.555L265.227 18H254.691L257.656 0.9375H268.074L267.746 2.78906H259.531L258.582 8.27344H265.754L265.438 10.1133ZM275.387 11.0977H271.449L270.254 18H268.039L271.004 0.9375L276.137 0.949219C277.926 0.957031 279.289 1.41016 280.227 2.30859C281.164 3.20703 281.559 4.42969 281.41 5.97656C281.324 7.04688 280.934 7.98828 280.238 8.80078C279.551 9.61328 278.633 10.2266 277.484 10.6406L280.133 17.8477L280.121 18H277.777L275.387 11.0977ZM271.766 9.25781L275 9.26953C276.125 9.26953 277.074 8.97266 277.848 8.37891C278.621 7.77734 279.074 6.97656 279.207 5.97656C279.324 5 279.129 4.23438 278.621 3.67969C278.113 3.125 277.34 2.83203 276.301 2.80078L272.891 2.78906L271.766 9.25781ZM284.867 18H282.676L285.641 0.9375H287.832L284.867 18Z" fill="#D58655"/>
</svg>
